{
.appVersion = "939";
copyright = "Copyright 2016 Google Inc. All Rights Reserved.";
customParameters = (
{
name = description;
value = "Designed by Monotype design team.";
},
{
name = license;
value = "This Font Software is licensed under the SIL Open Font License, Version 1.1. This Font Software is distributed on an \"AS IS\" BASIS, WITHOUT WARRANTIES OR CONDITIONS OF ANY KIND, either express or implied. See the SIL Open Font License for the specific language, permissions and limitations governing your use of this Font Software.";
},
{
name = licenseURL;
value = "http://scripts.sil.org/OFL";
},
{
name = vendorID;
value = GOOG;
},
{
name = trademark;
value = "Noto is a trademark of Google Inc.";
},
{
name = fsType;
value = (
);
},
{
name = panose;
value = (
2,
11,
5,
2,
4,
5,
4,
2,
2,
4
);
},
{
name = unicodeRanges;
value = (
84
);
},
{
name = codePageRanges;
value = (
1252
);
}
);
date = "2016-11-10 14:46:03 +0000";
designer = "Monotype Design Team";
designerURL = "http://www.monotype.com/studio";
disablesNiceNames = 1;
familyName = "Noto Sans Tagalog";
fontMaster = (
{
ascender = 2189;
capHeight = 1434;
customParameters = (
{
name = typoAscender;
value = 2189;
},
{
name = typoDescender;
value = -600;
},
{
name = typoLineGap;
value = 0;
},
{
name = winAscent;
value = 2189;
},
{
name = winDescent;
value = 600;
},
{
name = hheaAscender;
value = 2189;
},
{
name = hheaDescender;
value = -600;
},
{
name = underlinePosition;
value = -205;
},
{
name = underlineThickness;
value = 102;
}
);
descender = -600;
id = "223D97A1-9E65-406C-A321-524201E1907E";
weightValue = 400;
widthValue = 5;
xHeight = 1024;
}
);
glyphs = (
{
glyphname = .notdef;
lastChange = "2016-11-10 14:45:50 +0000";
layers = (
{
layerId = "223D97A1-9E65-406C-A321-524201E1907E";
paths = (
{
closed = 1;
nodes = (
"1034 0 LINE",
"1034 1462 LINE",
"193 1462 LINE",
"193 0 LINE"
);
},
{
closed = 1;
nodes = (
"297 1358 LINE",
"930 1358 LINE",
"930 104 LINE",
"297 104 LINE"
);
}
);
width = 1229;
}
);
note = .notdef;
},
{
glyphname = uni1700;
lastChange = "2016-11-10 14:45:46 +0000";
layers = (
{
layerId = "223D97A1-9E65-406C-A321-524201E1907E";
paths = (
{
closed = 1;
nodes = (
"852 0 OFFCURVE",
"1035 156 OFFCURVE",
"1266 548 CURVE SMOOTH",
"1503 944 LINE SMOOTH",
"1598 1099 OFFCURVE",
"1669 1159 OFFCURVE",
"1765 1159 CURVE SMOOTH",
"1849 1159 OFFCURVE",
"1907 1118 OFFCURVE",
"1939 1036 CURVE",
"2068 1092 LINE",
"2015 1221 OFFCURVE",
"1912 1298 OFFCURVE",
"1769 1298 CURVE SMOOTH",
"1600 1298 OFFCURVE",
"1495 1214 OFFCURVE",
"1311 909 CURVE SMOOTH",
"1217 754 LINE SMOOTH",
"1115 585 OFFCURVE",
"1041 469 OFFCURVE",
"995 405 CURVE SMOOTH",
"949 341 OFFCURVE",
"908 291 OFFCURVE",
"872 254 CURVE SMOOTH",
"799 180 OFFCURVE",
"729 139 OFFCURVE",
"664 139 CURVE SMOOTH",
"586 139 OFFCURVE",
"547 213 OFFCURVE",
"547 360 CURVE SMOOTH",
"547 439 OFFCURVE",
"570 550 OFFCURVE",
"594 670 CURVE SMOOTH",
"618 789 OFFCURVE",
"641 917 OFFCURVE",
"641 1032 CURVE SMOOTH",
"641 1061 LINE",
"928 1061 LINE",
"928 1200 LINE",
"627 1200 LINE",
"612 1269 OFFCURVE",
"588 1327 OFFCURVE",
"557 1375 CURVE SMOOTH",
"493 1471 OFFCURVE",
"408 1531 OFFCURVE",
"217 1595 CURVE",
"184 1458 LINE",
"351 1415 OFFCURVE",
"435 1337 OFFCURVE",
"471 1200 CURVE",
"172 1200 LINE",
"172 1061 LINE",
"485 1061 LINE",
"485 999 OFFCURVE",
"482 948 OFFCURVE",
"477 907 CURVE",
"172 907 LINE",
"172 768 LINE",
"455 768 LINE",
"434 670 LINE SMOOTH",
"404 539 OFFCURVE",
"389 430 OFFCURVE",
"389 344 CURVE SMOOTH",
"389 137 OFFCURVE",
"494 0 OFFCURVE",
"651 0 CURVE SMOOTH"
);
}
);
width = 2077;
}
);
note = uni1700;
unicode = 1700;
},
{
glyphname = uni1701;
lastChange = "2016-11-10 14:40:32 +0000";
layers = (
{
layerId = "223D97A1-9E65-406C-A321-524201E1907E";
paths = (
{
closed = 1;
nodes = (
"557 160 OFFCURVE",
"723 270 OFFCURVE",
"831 469 CURVE",
"864 400 OFFCURVE",
"911 330 OFFCURVE",
"973 258 CURVE",
"1048 305 OFFCURVE",
"1127 383 OFFCURVE",
"1210 492 CURVE",
"1325 256 OFFCURVE",
"1464 160 OFFCURVE",
"1649 160 CURVE SMOOTH",
"1737 160 OFFCURVE",
"1792 173 OFFCURVE",
"1911 236 CURVE",
"1845 358 LINE",
"1762 311 OFFCURVE",
"1720 299 OFFCURVE",
"1647 299 CURVE SMOOTH",
"1466 299 OFFCURVE",
"1333 466 OFFCURVE",
"1284 741 CURVE",
"1190 741 LINE",
"1155 652 OFFCURVE",
"1062 504 OFFCURVE",
"999 459 CURVE",
"945 529 OFFCURVE",
"904 623 OFFCURVE",
"877 741 CURVE",
"782 741 LINE",
"713 457 OFFCURVE",
"564 299 OFFCURVE",
"369 299 CURVE SMOOTH",
"274 299 OFFCURVE",
"200 317 OFFCURVE",
"145 352 CURVE",
"72 233 LINE",
"149 184 OFFCURVE",
"248 160 OFFCURVE",
"369 160 CURVE SMOOTH"
);
},
{
closed = 1;
nodes = (
"647 870 OFFCURVE",
"720 877 OFFCURVE",
"800 892 CURVE SMOOTH",
"879 907 OFFCURVE",
"1003 940 OFFCURVE",
"1172 993 CURVE SMOOTH",
"1288 1029 OFFCURVE",
"1383 1047 OFFCURVE",
"1458 1047 CURVE SMOOTH",
"1626 1047 OFFCURVE",
"1745 1014 OFFCURVE",
"1917 887 CURVE",
"2003 997 LINE",
"1811 1136 OFFCURVE",
"1669 1186 OFFCURVE",
"1485 1186 CURVE SMOOTH",
"1367 1186 OFFCURVE",
"1220 1157 OFFCURVE",
"1044 1100 CURVE SMOOTH",
"864 1040 OFFCURVE",
"711 1010 OFFCURVE",
"584 1010 CURVE SMOOTH",
"419 1010 OFFCURVE",
"314 1051 OFFCURVE",
"143 1174 CURVE",
"66 1059 LINE",
"254 920 OFFCURVE",
"396 870 OFFCURVE",
"580 870 CURVE SMOOTH"
);
}
);
width = 2071;
}
);
note = uni1701;
unicode = 1701;
},
{
glyphname = uni1702;
lastChange = "2016-11-10 14:45:46 +0000";
layers = (
{
layerId = "223D97A1-9E65-406C-A321-524201E1907E";
paths = (
{
closed = 1;
nodes = (
"797 0 OFFCURVE",
"997 159 OFFCURVE",
"997 416 CURVE SMOOTH",
"997 571 OFFCURVE",
"909 693 OFFCURVE",
"778 729 CURVE",
"898 783 OFFCURVE",
"958 874 OFFCURVE",
"958 1001 CURVE SMOOTH",
"958 1186 OFFCURVE",
"818 1298 OFFCURVE",
"578 1298 CURVE SMOOTH",
"423 1298 OFFCURVE",
"337 1276 OFFCURVE",
"221 1223 CURVE",
"279 1094 LINE",
"358 1133 OFFCURVE",
"473 1159 OFFCURVE",
"569 1159 CURVE SMOOTH",
"712 1159 OFFCURVE",
"801 1098 OFFCURVE",
"801 993 CURVE SMOOTH",
"801 864 OFFCURVE",
"680 776 OFFCURVE",
"500 776 CURVE SMOOTH",
"406 776 LINE",
"406 637 LINE",
"547 637 LINE SMOOTH",
"746 637 OFFCURVE",
"842 555 OFFCURVE",
"842 414 CURVE SMOOTH",
"842 363 OFFCURVE",
"828 317 OFFCURVE",
"799 275 CURVE SMOOTH",
"742 190 OFFCURVE",
"636 139 OFFCURVE",
"496 139 CURVE SMOOTH",
"372 139 OFFCURVE",
"229 165 OFFCURVE",
"150 201 CURVE",
"98 68 LINE",
"235 17 OFFCURVE",
"351 0 OFFCURVE",
"498 0 CURVE SMOOTH"
);
}
);
width = 1096;
}
);
note = uni1702;
unicode = 1702;
},
{
glyphname = uni1703;
lastChange = "2016-11-10 14:45:46 +0000";
layers = (
{
layerId = "223D97A1-9E65-406C-A321-524201E1907E";
paths = (
{
closed = 1;
nodes = (
"602 43 OFFCURVE",
"685 60 OFFCURVE",
"766 94 CURVE SMOOTH",
"1305 319 LINE",
"1353 342 OFFCURVE",
"1462 371 OFFCURVE",
"1530 371 CURVE SMOOTH",
"1638 371 OFFCURVE",
"1715 351 OFFCURVE",
"1847 283 CURVE",
"1911 408 LINE",
"1771 481 OFFCURVE",
"1663 510 OFFCURVE",
"1522 510 CURVE SMOOTH",
"1443 510 OFFCURVE",
"1352 489 OFFCURVE",
"1249 446 CURVE SMOOTH",
"1098 383 LINE",
"1098 961 LINE",
"1305 1049 LINE SMOOTH",
"1392 1083 OFFCURVE",
"1467 1100 OFFCURVE",
"1530 1100 CURVE SMOOTH",
"1638 1100 OFFCURVE",
"1715 1080 OFFCURVE",
"1847 1012 CURVE",
"1911 1137 LINE",
"1771 1210 OFFCURVE",
"1663 1239 OFFCURVE",
"1522 1239 CURVE SMOOTH",
"1441 1239 OFFCURVE",
"1330 1211 OFFCURVE",
"1249 1176 CURVE SMOOTH",
"711 950 LINE SMOOTH",
"650 924 OFFCURVE",
"587 911 OFFCURVE",
"522 911 CURVE SMOOTH",
"394 911 OFFCURVE",
"299 955 OFFCURVE",
"195 1055 CURVE",
"104 946 LINE",
"259 814 OFFCURVE",
"371 772 OFFCURVE",
"518 772 CURVE SMOOTH",
"602 772 OFFCURVE",
"685 789 OFFCURVE",
"766 823 CURVE SMOOTH",
"940 895 LINE",
"940 317 LINE",
"711 221 LINE SMOOTH",
"650 195 OFFCURVE",
"587 182 OFFCURVE",
"522 182 CURVE SMOOTH",
"394 182 OFFCURVE",
"299 226 OFFCURVE",
"195 326 CURVE",
"104 217 LINE",
"259 85 OFFCURVE",
"371 43 OFFCURVE",
"518 43 CURVE SMOOTH"
);
}
);
width = 2015;
}
);
note = uni1703;
unicode = 1703;
},
{
glyphname = uni1704;
lastChange = "2016-11-10 14:45:46 +0000";
layers = (
{
layerId = "223D97A1-9E65-406C-A321-524201E1907E";
paths = (
{
closed = 1;
nodes = (
"797 0 OFFCURVE",
"997 159 OFFCURVE",
"997 416 CURVE SMOOTH",
"997 571 OFFCURVE",
"909 693 OFFCURVE",
"778 729 CURVE",
"898 783 OFFCURVE",
"958 874 OFFCURVE",
"958 1001 CURVE SMOOTH",
"958 1022 OFFCURVE",
"956 1044 OFFCURVE",
"952 1065 CURVE",
"997 1088 OFFCURVE",
"1040 1100 OFFCURVE",
"1079 1100 CURVE SMOOTH",
"1142 1100 OFFCURVE",
"1186 1070 OFFCURVE",
"1211 1011 CURVE SMOOTH",
"1236 951 OFFCURVE",
"1249 854 OFFCURVE",
"1249 719 CURVE SMOOTH",
"1249 424 LINE SMOOTH",
"1249 312 OFFCURVE",
"1262 228 OFFCURVE",
"1288 171 CURVE SMOOTH",
"1339 58 OFFCURVE",
"1448 0 OFFCURVE",
"1640 0 CURVE SMOOTH",
"1661 0 LINE",
"1661 139 LINE",
"1524 139 OFFCURVE",
"1460 168 OFFCURVE",
"1430 237 CURVE SMOOTH",
"1415 271 OFFCURVE",
"1407 333 OFFCURVE",
"1407 424 CURVE SMOOTH",
"1407 719 LINE SMOOTH",
"1407 1086 OFFCURVE",
"1315 1239 OFFCURVE",
"1098 1239 CURVE SMOOTH",
"1023 1239 OFFCURVE",
"955 1221 OFFCURVE",
"893 1184 CURVE",
"827 1260 OFFCURVE",
"722 1298 OFFCURVE",
"578 1298 CURVE SMOOTH",
"423 1298 OFFCURVE",
"337 1276 OFFCURVE",
"221 1223 CURVE",
"279 1094 LINE",
"358 1133 OFFCURVE",
"473 1159 OFFCURVE",
"569 1159 CURVE SMOOTH",
"712 1159 OFFCURVE",
"801 1098 OFFCURVE",
"801 993 CURVE SMOOTH",
"801 864 OFFCURVE",
"680 776 OFFCURVE",
"500 776 CURVE SMOOTH",
"406 776 LINE",
"406 637 LINE",
"547 637 LINE SMOOTH",
"746 637 OFFCURVE",
"842 555 OFFCURVE",
"842 414 CURVE SMOOTH",
"842 363 OFFCURVE",
"828 317 OFFCURVE",
"799 275 CURVE SMOOTH",
"742 190 OFFCURVE",
"636 139 OFFCURVE",
"496 139 CURVE SMOOTH",
"372 139 OFFCURVE",
"229 165 OFFCURVE",
"150 201 CURVE",
"98 68 LINE",
"235 17 OFFCURVE",
"351 0 OFFCURVE",
"498 0 CURVE SMOOTH"
);
}
);
width = 1714;
}
);
note = uni1704;
unicode = 1704;
},
{
glyphname = uni1705;
lastChange = "2016-11-10 14:45:46 +0000";
layers = (
{
layerId = "223D97A1-9E65-406C-A321-524201E1907E";
paths = (
{
closed = 1;
nodes = (
"307 0 LINE",
"295 31 OFFCURVE",
"289 61 OFFCURVE",
"289 90 CURVE SMOOTH",
"289 137 OFFCURVE",
"312 174 OFFCURVE",
"367 174 CURVE SMOOTH",
"399 174 OFFCURVE",
"444 167 OFFCURVE",
"501 153 CURVE SMOOTH",
"558 138 OFFCURVE",
"618 131 OFFCURVE",
"680 131 CURVE SMOOTH",
"749 131 OFFCURVE",
"812 147 OFFCURVE",
"869 179 CURVE SMOOTH",
"984 243 OFFCURVE",
"1060 369 OFFCURVE",
"1073 526 CURVE",
"1217 526 OFFCURVE",
"1329 571 OFFCURVE",
"1436 678 CURVE SMOOTH",
"1507 751 OFFCURVE",
"1555 778 OFFCURVE",
"1632 778 CURVE SMOOTH",
"1736 778 OFFCURVE",
"1812 698 OFFCURVE",
"1812 582 CURVE SMOOTH",
"1812 415 OFFCURVE",
"1695 296 OFFCURVE",
"1491 248 CURVE",
"1526 117 LINE",
"1797 166 OFFCURVE",
"1960 343 OFFCURVE",
"1960 580 CURVE SMOOTH",
"1960 781 OFFCURVE",
"1831 918 OFFCURVE",
"1632 918 CURVE SMOOTH",
"1527 918 OFFCURVE",
"1451 884 OFFCURVE",
"1335 780 CURVE SMOOTH",
"1246 696 OFFCURVE",
"1184 666 OFFCURVE",
"1073 666 CURVE",
"1049 911 OFFCURVE",
"908 1047 OFFCURVE",
"680 1047 CURVE SMOOTH",
"605 1047 OFFCURVE",
"534 1029 OFFCURVE",
"465 993 CURVE SMOOTH",
"413 967 OFFCURVE",
"374 954 OFFCURVE",
"348 954 CURVE SMOOTH",
"285 954 OFFCURVE",
"254 979 OFFCURVE",
"254 1030 CURVE SMOOTH",
"254 1055 OFFCURVE",
"263 1079 OFFCURVE",
"281 1100 CURVE SMOOTH",
"298 1121 OFFCURVE",
"341 1153 OFFCURVE",
"408 1196 CURVE",
"330 1313 LINE",
"155 1194 OFFCURVE",
"106 1122 OFFCURVE",
"106 1026 CURVE SMOOTH",
"106 895 OFFCURVE",
"189 815 OFFCURVE",
"330 815 CURVE SMOOTH",
"389 815 OFFCURVE",
"449 830 OFFCURVE",
"510 861 CURVE SMOOTH",
"570 892 OFFCURVE",
"631 907 OFFCURVE",
"692 907 CURVE SMOOTH",
"848 907 OFFCURVE",
"915 799 OFFCURVE",
"915 590 CURVE SMOOTH",
"915 377 OFFCURVE",
"833 270 OFFCURVE",
"670 270 CURVE SMOOTH",
"632 270 OFFCURVE",
"583 277 OFFCURVE",
"524 292 CURVE SMOOTH",
"464 306 OFFCURVE",
"409 313 OFFCURVE",
"360 313 CURVE SMOOTH",
"227 313 OFFCURVE",
"141 231 OFFCURVE",
"141 115 CURVE SMOOTH",
"141 74 OFFCURVE",
"148 35 OFFCURVE",
"162 0 CURVE"
);
}
);
width = 2071;
}
);
note = uni1705;
unicode = 1705;
},
{
glyphname = uni1706;
lastChange = "2016-11-10 14:45:46 +0000";
layers = (
{
layerId = "223D97A1-9E65-406C-A321-524201E1907E";
paths = (
{
closed = 1;
nodes = (
"453 0 LINE",
"501 333 OFFCURVE",
"642 618 OFFCURVE",
"853 823 CURVE SMOOTH",
"1064 1028 OFFCURVE",
"1345 1153 OFFCURVE",
"1593 1153 CURVE SMOOTH",
"1697 1153 OFFCURVE",
"1790 1135 OFFCURVE",
"1872 1098 CURVE",
"1931 1225 LINE",
"1834 1270 OFFCURVE",
"1721 1292 OFFCURVE",
"1593 1292 CURVE SMOOTH",
"1296 1292 OFFCURVE",
"1019 1174 OFFCURVE",
"762 938 CURVE SMOOTH",
"586 778 OFFCURVE",
"450 698 OFFCURVE",
"354 698 CURVE SMOOTH",
"304 698 OFFCURVE",
"279 719 OFFCURVE",
"279 760 CURVE SMOOTH",
"279 782 OFFCURVE",
"290 806 OFFCURVE",
"311 831 CURVE",
"205 922 LINE",
"161 873 OFFCURVE",
"139 817 OFFCURVE",
"139 754 CURVE SMOOTH",
"139 637 OFFCURVE",
"219 559 OFFCURVE",
"344 559 CURVE SMOOTH",
"391 559 OFFCURVE",
"442 571 OFFCURVE",
"496 596 CURVE",
"383 404 OFFCURVE",
"315 205 OFFCURVE",
"291 0 CURVE"
);
}
);
width = 1997;
}
);
note = uni1706;
unicode = 1706;
},
{
glyphname = uni1707;
lastChange = "2016-11-10 14:45:46 +0000";
layers = (
{
layerId = "223D97A1-9E65-406C-A321-524201E1907E";
paths = (
{
closed = 1;
nodes = (
"646 164 OFFCURVE",
"702 167 OFFCURVE",
"761 174 CURVE SMOOTH",
"879 187 OFFCURVE",
"1085 244 OFFCURVE",
"1216 284 CURVE SMOOTH",
"1329 319 OFFCURVE",
"1422 336 OFFCURVE",
"1497 336 CURVE SMOOTH",
"1674 336 OFFCURVE",
"1787 301 OFFCURVE",
"1956 176 CURVE",
"2042 287 LINE",
"1858 422 OFFCURVE",
"1708 475 OFFCURVE",
"1524 475 CURVE SMOOTH",
"1416 475 OFFCURVE",
"1326 461 OFFCURVE",
"1079 389 CURVE SMOOTH",
"883 329 OFFCURVE",
"747 303 OFFCURVE",
"596 303 CURVE SMOOTH",
"432 303 OFFCURVE",
"350 387 OFFCURVE",
"350 518 CURVE SMOOTH",
"350 677 OFFCURVE",
"427 799 OFFCURVE",
"532 874 CURVE",
"560 871 OFFCURVE",
"589 870 OFFCURVE",
"618 870 CURVE SMOOTH",
"685 870 OFFCURVE",
"759 877 OFFCURVE",
"839 892 CURVE SMOOTH",
"918 907 OFFCURVE",
"1042 940 OFFCURVE",
"1211 993 CURVE SMOOTH",
"1327 1029 OFFCURVE",
"1422 1047 OFFCURVE",
"1497 1047 CURVE SMOOTH",
"1665 1047 OFFCURVE",
"1784 1014 OFFCURVE",
"1956 887 CURVE",
"2042 997 LINE",
"1855 1134 OFFCURVE",
"1708 1186 OFFCURVE",
"1524 1186 CURVE SMOOTH",
"1406 1186 OFFCURVE",
"1259 1157 OFFCURVE",
"1083 1100 CURVE SMOOTH",
"903 1040 OFFCURVE",
"750 1010 OFFCURVE",
"623 1010 CURVE SMOOTH",
"458 1010 OFFCURVE",
"353 1051 OFFCURVE",
"182 1174 CURVE",
"104 1059 LINE",
"193 992 OFFCURVE",
"283 942 OFFCURVE",
"373 909 CURVE",
"272 816 OFFCURVE",
"193 681 OFFCURVE",
"193 514 CURVE SMOOTH",
"193 305 OFFCURVE",
"349 164 OFFCURVE",
"594 164 CURVE SMOOTH"
);
}
);
width = 2146;
}
);
note = uni1707;
unicode = 1707;
},
{
glyphname = uni1708;
lastChange = "2016-11-10 14:45:46 +0000";
layers = (
{
layerId = "223D97A1-9E65-406C-A321-524201E1907E";
paths = (
{
closed = 1;
nodes = (
"848 -56 OFFCURVE",
"906 8 OFFCURVE",
"977 57 CURVE SMOOTH",
"1044 104 OFFCURVE",
"1094 150 OFFCURVE",
"1094 213 CURVE SMOOTH",
"1094 273 OFFCURVE",
"1026 312 OFFCURVE",
"907 356 CURVE SMOOTH",
"895 360 OFFCURVE",
"889 364 OFFCURVE",
"889 367 CURVE SMOOTH",
"889 370 OFFCURVE",
"896 376 OFFCURVE",
"910 383 CURVE SMOOTH",
"923 390 OFFCURVE",
"938 399 OFFCURVE",
"954 410 CURVE",
"1008 441 OFFCURVE",
"1045 468 OFFCURVE",
"1065 490 CURVE SMOOTH",
"1084 511 OFFCURVE",
"1094 532 OFFCURVE",
"1094 553 CURVE SMOOTH",
"1094 588 OFFCURVE",
"1073 614 OFFCURVE",
"1039 636 CURVE SMOOTH",
"1022 647 OFFCURVE",
"989 661 OFFCURVE",
"942 680 CURVE SMOOTH",
"907 695 OFFCURVE",
"889 704 OFFCURVE",
"889 709 CURVE SMOOTH",
"889 713 OFFCURVE",
"899 720 OFFCURVE",
"920 731 CURVE SMOOTH",
"1023 788 OFFCURVE",
"1065 831 OFFCURVE",
"1065 883 CURVE SMOOTH",
"1065 914 OFFCURVE",
"1049 942 OFFCURVE",
"1018 967 CURVE",
"969 1013 LINE",
"926 1050 OFFCURVE",
"905 1094 OFFCURVE",
"905 1145 CURVE SMOOTH",
"905 1157 LINE",
"1009 1150 OFFCURVE",
"1101 1115 OFFCURVE",
"1181 1053 CURVE SMOOTH",
"1340 928 OFFCURVE",
"1432 700 OFFCURVE",
"1432 449 CURVE SMOOTH",
"1432 264 OFFCURVE",
"1411 156 OFFCURVE",
"1360 0 CURVE",
"1524 0 LINE",
"1569 125 OFFCURVE",
"1591 273 OFFCURVE",
"1591 446 CURVE SMOOTH",
"1591 609 OFFCURVE",
"1561 755 OFFCURVE",
"1501 884 CURVE SMOOTH",
"1381 1140 OFFCURVE",
"1139 1298 OFFCURVE",
"870 1298 CURVE SMOOTH",
"735 1298 OFFCURVE",
"612 1261 OFFCURVE",
"499 1187 CURVE SMOOTH",
"274 1038 OFFCURVE",
"152 775 OFFCURVE",
"152 446 CURVE SMOOTH",
"152 269 OFFCURVE",
"174 121 OFFCURVE",
"217 0 CURVE",
"381 0 LINE",
"330 156 OFFCURVE",
"309 268 OFFCURVE",
"309 449 CURVE SMOOTH",
"309 813 OFFCURVE",
"486 1083 OFFCURVE",
"766 1147 CURVE",
"766 1141 LINE SMOOTH",
"766 1038 OFFCURVE",
"806 959 OFFCURVE",
"885 905 CURVE SMOOTH",
"898 896 OFFCURVE",
"905 890 OFFCURVE",
"905 885 CURVE SMOOTH",
"905 881 OFFCURVE",
"892 872 OFFCURVE",
"865 858 CURVE",
"805 822 OFFCURVE",
"780 806 OFFCURVE",
"758 785 CURVE SMOOTH",
"736 764 OFFCURVE",
"723 739 OFFCURVE",
"723 707 CURVE SMOOTH",
"723 651 OFFCURVE",
"754 611 OFFCURVE",
"815 587 CURVE SMOOTH",
"868 565 LINE SMOOTH",
"893 554 OFFCURVE",
"905 546 OFFCURVE",
"905 541 CURVE SMOOTH",
"905 536 OFFCURVE",
"899 531 OFFCURVE",
"886 526 CURVE",
"860 512 OFFCURVE",
"835 498 OFFCURVE",
"811 485 CURVE SMOOTH",
"762 457 OFFCURVE",
"723 412 OFFCURVE",
"723 365 CURVE SMOOTH",
"723 306 OFFCURVE",
"752 268 OFFCURVE",
"815 244 CURVE SMOOTH",
"868 223 LINE SMOOTH",
"893 213 OFFCURVE",
"905 203 OFFCURVE",
"905 193 CURVE SMOOTH",
"905 182 OFFCURVE",
"894 169 OFFCURVE",
"872 154 CURVE SMOOTH",
"782 93 OFFCURVE",
"715 19 OFFCURVE",
"672 -66 CURVE",
"803 -135 LINE"
);
}
);
width = 1741;
}
);
note = uni1708;
unicode = 1708;
},
{
glyphname = uni1709;
lastChange = "2016-11-10 14:45:46 +0000";
layers = (
{
layerId = "223D97A1-9E65-406C-A321-524201E1907E";
paths = (
{
closed = 1;
nodes = (
"761 0 OFFCURVE",
"844 24 OFFCURVE",
"935 80 CURVE SMOOTH",
"1026 135 OFFCURVE",
"1113 218 OFFCURVE",
"1218 355 CURVE SMOOTH",
"1271 423 OFFCURVE",
"1347 537 OFFCURVE",
"1446 696 CURVE",
"1499 624 OFFCURVE",
"1556 530 OFFCURVE",
"1616 414 CURVE",
"1745 481 LINE",
"1704 570 OFFCURVE",
"1595 743 OFFCURVE",
"1528 827 CURVE",
"1597 944 LINE SMOOTH",
"1692 1100 OFFCURVE",
"1759 1159 OFFCURVE",
"1855 1159 CURVE SMOOTH",
"1943 1159 OFFCURVE",
"2003 1118 OFFCURVE",
"2034 1036 CURVE",
"2163 1092 LINE",
"2108 1221 OFFCURVE",
"2005 1298 OFFCURVE",
"1864 1298 CURVE SMOOTH",
"1707 1298 OFFCURVE",
"1601 1216 OFFCURVE",
"1473 1008 CURVE SMOOTH",
"1281 706 LINE SMOOTH",
"1146 492 OFFCURVE",
"1034 344 OFFCURVE",
"944 262 CURVE SMOOTH",
"854 180 OFFCURVE",
"766 139 OFFCURVE",
"680 139 CURVE SMOOTH",
"601 139 OFFCURVE",
"555 195 OFFCURVE",
"555 295 CURVE SMOOTH",
"555 371 OFFCURVE",
"558 430 OFFCURVE",
"590 573 CURVE SMOOTH",
"607 647 OFFCURVE",
"616 704 OFFCURVE",
"616 745 CURVE SMOOTH",
"616 861 OFFCURVE",
"553 905 OFFCURVE",
"408 905 CURVE SMOOTH",
"119 905 LINE",
"119 766 LINE",
"459 766 LINE",
"459 718 OFFCURVE",
"455 675 OFFCURVE",
"446 637 CURVE SMOOTH",
"413 490 OFFCURVE",
"397 381 OFFCURVE",
"397 309 CURVE SMOOTH",
"397 110 OFFCURVE",
"495 0 OFFCURVE",
"670 0 CURVE SMOOTH"
);
}
);
width = 2191;
}
);
note = uni1709;
unicode = 1709;
},
{
glyphname = uni170A;
lastChange = "2016-11-10 14:45:46 +0000";
layers = (
{
layerId = "223D97A1-9E65-406C-A321-524201E1907E";
paths = (
{
closed = 1;
nodes = (
"626 0 OFFCURVE",
"751 47 OFFCURVE",
"864 141 CURVE",
"955 30 OFFCURVE",
"1036 0 OFFCURVE",
"1157 0 CURVE SMOOTH",
"1245 0 OFFCURVE",
"1324 23 OFFCURVE",
"1393 69 CURVE SMOOTH",
"1531 161 OFFCURVE",
"1612 338 OFFCURVE",
"1612 553 CURVE SMOOTH",
"1612 680 OFFCURVE",
"1582 802 OFFCURVE",
"1521 921 CURVE SMOOTH",
"1399 1157 OFFCURVE",
"1192 1298 OFFCURVE",
"977 1298 CURVE SMOOTH",
"754 1298 OFFCURVE",
"540 1196 OFFCURVE",
"383 1016 CURVE SMOOTH",
"226 836 OFFCURVE",
"131 598 OFFCURVE",
"131 387 CURVE SMOOTH",
"131 144 OFFCURVE",
"268 0 OFFCURVE",
"489 0 CURVE SMOOTH"
);
},
{
closed = 1;
nodes = (
"369 139 OFFCURVE",
"289 228 OFFCURVE",
"289 365 CURVE SMOOTH",
"289 500 OFFCURVE",
"322 631 OFFCURVE",
"387 757 CURVE SMOOTH",
"518 1009 OFFCURVE",
"736 1159 OFFCURVE",
"969 1159 CURVE SMOOTH",
"1053 1159 OFFCURVE",
"1131 1133 OFFCURVE",
"1204 1081 CURVE SMOOTH",
"1349 976 OFFCURVE",
"1454 764 OFFCURVE",
"1454 555 CURVE SMOOTH",
"1454 480 OFFCURVE",
"1441 410 OFFCURVE",
"1415 346 CURVE SMOOTH",
"1363 218 OFFCURVE",
"1266 139 OFFCURVE",
"1143 139 CURVE SMOOTH",
"1043 139 OFFCURVE",
"972 195 OFFCURVE",
"893 352 CURVE",
"752 197 OFFCURVE",
"628 139 OFFCURVE",
"500 139 CURVE SMOOTH"
);
}
);
width = 1743;
}
);
note = uni170A;
unicode = 170A;
},
{
glyphname = uni170B;
lastChange = "2016-11-10 14:45:46 +0000";
layers = (
{
layerId = "223D97A1-9E65-406C-A321-524201E1907E";
paths = (
{
closed = 1;
nodes = (
"853 0 OFFCURVE",
"1032 155 OFFCURVE",
"1265 548 CURVE SMOOTH",
"1503 944 LINE SMOOTH",
"1599 1101 OFFCURVE",
"1668 1159 OFFCURVE",
"1761 1159 CURVE SMOOTH",
"1848 1159 OFFCURVE",
"1907 1118 OFFCURVE",
"1939 1036 CURVE",
"2068 1092 LINE",
"2015 1221 OFFCURVE",
"1912 1298 OFFCURVE",
"1769 1298 CURVE SMOOTH",
"1616 1298 OFFCURVE",
"1511 1221 OFFCURVE",
"1378 1008 CURVE SMOOTH",
"1217 754 LINE",
"1102 807 OFFCURVE",
"984 834 OFFCURVE",
"862 834 CURVE SMOOTH",
"778 834 OFFCURVE",
"663 818 OFFCURVE",
"594 797 CURVE",
"599 822 OFFCURVE",
"602 849 OFFCURVE",
"602 879 CURVE SMOOTH",
"602 956 OFFCURVE",
"577 997 OFFCURVE",
"521 1015 CURVE SMOOTH",
"493 1024 OFFCURVE",
"446 1028 OFFCURVE",
"381 1028 CURVE SMOOTH",
"119 1028 LINE",
"119 889 LINE",
"444 889 LINE",
"444 860 OFFCURVE",
"436 806 OFFCURVE",
"421 725 CURVE SMOOTH",
"400 616 OFFCURVE",
"389 510 OFFCURVE",
"389 406 CURVE SMOOTH",
"389 159 OFFCURVE",
"496 0 OFFCURVE",
"664 0 CURVE SMOOTH"
);
},
{
closed = 1;
nodes = (
"597 139 OFFCURVE",
"547 254 OFFCURVE",
"547 401 CURVE SMOOTH",
"547 494 OFFCURVE",
"551 564 OFFCURVE",
"567 645 CURVE",
"664 678 OFFCURVE",
"760 694 OFFCURVE",
"856 694 CURVE SMOOTH",
"959 694 OFFCURVE",
"1055 674 OFFCURVE",
"1145 635 CURVE",
"1035 452 OFFCURVE",
"943 323 OFFCURVE",
"869 250 CURVE SMOOTH",
"794 176 OFFCURVE",
"726 139 OFFCURVE",
"664 139 CURVE SMOOTH"
);
}
);
width = 2109;
}
);
note = uni170B;
unicode = 170B;
},
{
glyphname = uni170C;
lastChange = "2016-11-10 14:45:46 +0000";
layers = (
{
layerId = "223D97A1-9E65-406C-A321-524201E1907E";
paths = (
{
closed = 1;
nodes = (
"762 0 OFFCURVE",
"847 27 OFFCURVE",
"932 80 CURVE SMOOTH",
"1103 186 OFFCURVE",
"1273 393 OFFCURVE",
"1518 821 CURVE SMOOTH",
"1579 930 OFFCURVE",
"1624 1004 OFFCURVE",
"1655 1043 CURVE SMOOTH",
"1716 1121 OFFCURVE",
"1774 1159 OFFCURVE",
"1847 1159 CURVE SMOOTH",
"1932 1159 OFFCURVE",
"1991 1105 OFFCURVE",
"1991 1032 CURVE SMOOTH",
"1991 941 OFFCURVE",
"1920 874 OFFCURVE",
"1827 874 CURVE SMOOTH",
"1772 874 OFFCURVE",
"1722 884 OFFCURVE",
"1679 905 CURVE",
"1622 778 LINE",
"1683 749 OFFCURVE",
"1753 735 OFFCURVE",
"1833 735 CURVE SMOOTH",
"1894 735 OFFCURVE",
"1948 748 OFFCURVE",
"1994 774 CURVE SMOOTH",
"2085 825 OFFCURVE",
"2138 923 OFFCURVE",
"2138 1032 CURVE SMOOTH",
"2138 1185 OFFCURVE",
"2016 1298 OFFCURVE",
"1855 1298 CURVE SMOOTH",
"1735 1298 OFFCURVE",
"1655 1258 OFFCURVE",
"1587 1187 CURVE SMOOTH",
"1518 1116 OFFCURVE",
"1461 1012 OFFCURVE",
"1386 887 CURVE SMOOTH",
"1264 678 OFFCURVE",
"1165 524 OFFCURVE",
"1089 426 CURVE SMOOTH",
"937 229 OFFCURVE",
"806 139 OFFCURVE",
"686 139 CURVE SMOOTH",
"599 139 OFFCURVE",
"555 191 OFFCURVE",
"555 295 CURVE SMOOTH",
"555 371 OFFCURVE",
"558 430 OFFCURVE",
"590 573 CURVE SMOOTH",
"607 647 OFFCURVE",
"616 704 OFFCURVE",
"616 745 CURVE SMOOTH",
"616 861 OFFCURVE",
"553 905 OFFCURVE",
"408 905 CURVE SMOOTH",
"119 905 LINE",
"119 766 LINE",
"459 766 LINE",
"459 718 OFFCURVE",
"455 675 OFFCURVE",
"446 637 CURVE SMOOTH",
"413 490 OFFCURVE",
"397 381 OFFCURVE",
"397 309 CURVE SMOOTH",
"397 108 OFFCURVE",
"495 0 OFFCURVE",
"678 0 CURVE SMOOTH"
);
}
);
width = 2107;
}
);
note = uni170C;
unicode = 170C;
},
{
glyphname = uni170E;
lastChange = "2016-11-10 14:45:46 +0000";
layers = (
{
layerId = "223D97A1-9E65-406C-A321-524201E1907E";
paths = (
{
closed = 1;
nodes = (
"944 57 OFFCURVE",
"1003 117 OFFCURVE",
"1073 160 CURVE",
"1141 207 OFFCURVE",
"1184 244 OFFCURVE",
"1184 307 CURVE SMOOTH",
"1184 347 OFFCURVE",
"1154 379 OFFCURVE",
"1093 404 CURVE SMOOTH",
"1070 413 OFFCURVE",
"1046 424 OFFCURVE",
"1021 435 CURVE SMOOTH",
"996 446 OFFCURVE",
"983 453 OFFCURVE",
"983 457 CURVE SMOOTH",
"983 463 OFFCURVE",
"989 471 OFFCURVE",
"1002 480 CURVE",
"1014 489 OFFCURVE",
"1037 504 OFFCURVE",
"1072 523 CURVE SMOOTH",
"1133 558 OFFCURVE",
"1163 592 OFFCURVE",
"1163 627 CURVE SMOOTH",
"1163 683 OFFCURVE",
"1123 714 OFFCURVE",
"1044 745 CURVE SMOOTH",
"1007 761 OFFCURVE",
"985 772 OFFCURVE",
"978 779 CURVE",
"962 791 OFFCURVE",
"954 806 OFFCURVE",
"954 829 CURVE SMOOTH",
"954 891 OFFCURVE",
"974 948 OFFCURVE",
"1013 999 CURVE SMOOTH",
"1092 1102 OFFCURVE",
"1238 1163 OFFCURVE",
"1415 1163 CURVE SMOOTH",
"1524 1163 OFFCURVE",
"1610 1142 OFFCURVE",
"1733 1075 CURVE",
"1796 1200 LINE",
"1645 1279 OFFCURVE",
"1543 1303 OFFCURVE",
"1407 1303 CURVE SMOOTH",
"1256 1303 OFFCURVE",
"1096 1253 OFFCURVE",
"897 1149 CURVE SMOOTH",
"749 1069 OFFCURVE",
"579 1006 OFFCURVE",
"475 1006 CURVE SMOOTH",
"358 1006 OFFCURVE",
"258 1047 OFFCURVE",
"150 1151 CURVE",
"57 1040 LINE",
"212 908 OFFCURVE",
"324 866 OFFCURVE",
"471 866 CURVE SMOOTH",
"570 866 OFFCURVE",
"681 892 OFFCURVE",
"848 969 CURVE",
"819 919 OFFCURVE",
"805 863 OFFCURVE",
"805 801 CURVE SMOOTH",
"805 727 OFFCURVE",
"849 673 OFFCURVE",
"938 639 CURVE SMOOTH",
"951 634 OFFCURVE",
"960 630 OFFCURVE",
"966 627 CURVE SMOOTH",
"972 624 OFFCURVE",
"975 621 OFFCURVE",
"975 616 CURVE SMOOTH",
"975 612 OFFCURVE",
"969 607 OFFCURVE",
"956 602 CURVE",
"848 553 OFFCURVE",
"817 506 OFFCURVE",
"817 451 CURVE SMOOTH",
"817 397 OFFCURVE",
"848 359 OFFCURVE",
"911 336 CURVE SMOOTH",
"963 315 LINE",
"987 307 OFFCURVE",
"999 300 OFFCURVE",
"999 293 CURVE SMOOTH",
"999 288 OFFCURVE",
"992 281 OFFCURVE",
"979 272 CURVE",
"894 221 OFFCURVE",
"824 146 OFFCURVE",
"768 47 CURVE",
"895 -20 LINE"
);
}
);
width = 1870;
}
);
note = uni170E;
unicode = 170E;
},
{
glyphname = uni170F;
lastChange = "2016-11-10 14:45:46 +0000";
layers = (
{
layerId = "223D97A1-9E65-406C-A321-524201E1907E";
paths = (
{
closed = 1;
nodes = (
"832 0 OFFCURVE",
"945 47 OFFCURVE",
"1060 141 CURVE SMOOTH",
"1289 328 OFFCURVE",
"1460 672 OFFCURVE",
"1460 961 CURVE SMOOTH",
"1460 1232 OFFCURVE",
"1316 1380 OFFCURVE",
"1063 1380 CURVE SMOOTH",
"898 1380 OFFCURVE",
"767 1317 OFFCURVE",
"670 1192 CURVE",
"774 1102 LINE",
"842 1189 OFFCURVE",
"940 1241 OFFCURVE",
"1053 1241 CURVE SMOOTH",
"1217 1241 OFFCURVE",
"1303 1145 OFFCURVE",
"1303 965 CURVE SMOOTH",
"1303 851 OFFCURVE",
"1274 728 OFFCURVE",
"1217 597 CURVE SMOOTH",
"1101 333 OFFCURVE",
"900 139 OFFCURVE",
"731 139 CURVE SMOOTH",
"615 139 OFFCURVE",
"555 194 OFFCURVE",
"555 326 CURVE SMOOTH",
"555 386 OFFCURVE",
"558 433 OFFCURVE",
"590 573 CURVE SMOOTH",
"607 647 OFFCURVE",
"616 704 OFFCURVE",
"616 745 CURVE SMOOTH",
"616 861 OFFCURVE",
"553 905 OFFCURVE",
"408 905 CURVE SMOOTH",
"119 905 LINE",
"119 766 LINE",
"459 766 LINE",
"459 718 OFFCURVE",
"455 675 OFFCURVE",
"446 637 CURVE SMOOTH",
"413 490 OFFCURVE",
"397 382 OFFCURVE",
"397 311 CURVE SMOOTH",
"397 115 OFFCURVE",
"515 0 OFFCURVE",
"719 0 CURVE SMOOTH"
);
}
);
width = 1559;
}
);
note = uni170F;
unicode = 170F;
},
{
glyphname = uni1710;
lastChange = "2016-11-10 14:45:46 +0000";
layers = (
{
layerId = "223D97A1-9E65-406C-A321-524201E1907E";
paths = (
{
closed = 1;
nodes = (
"1133 -20 LINE SMOOTH",
"1572 -20 OFFCURVE",
"1790 116 OFFCURVE",
"1790 393 CURVE SMOOTH",
"1790 534 OFFCURVE",
"1698 655 OFFCURVE",
"1571 690 CURVE",
"1691 744 OFFCURVE",
"1751 843 OFFCURVE",
"1751 987 CURVE SMOOTH",
"1751 1172 OFFCURVE",
"1613 1298 OFFCURVE",
"1397 1298 CURVE SMOOTH",
"1238 1298 OFFCURVE",
"1103 1233 OFFCURVE",
"984 1104 CURVE SMOOTH",
"864 975 OFFCURVE",
"693 677 OFFCURVE",
"516 309 CURVE",
"512 309 LINE",
"508 1126 LINE",
"508 1179 OFFCURVE",
"502 1217 OFFCURVE",
"490 1238 CURVE SMOOTH",
"465 1280 OFFCURVE",
"410 1298 OFFCURVE",
"301 1298 CURVE SMOOTH",
"39 1298 LINE",
"39 1159 LINE",
"350 1159 LINE",
"354 0 LINE",
"492 0 LINE",
"536 75 OFFCURVE",
"626 235 OFFCURVE",
"761 480 CURVE SMOOTH",
"969 856 OFFCURVE",
"1117 1159 OFFCURVE",
"1380 1159 CURVE SMOOTH",
"1515 1159 OFFCURVE",
"1593 1090 OFFCURVE",
"1593 967 CURVE SMOOTH",
"1593 826 OFFCURVE",
"1473 737 OFFCURVE",
"1292 737 CURVE SMOOTH",
"1198 737 LINE",
"1198 598 LINE",
"1350 598 LINE SMOOTH",
"1527 598 OFFCURVE",
"1632 524 OFFCURVE",
"1632 393 CURVE SMOOTH",
"1632 209 OFFCURVE",
"1469 119 OFFCURVE",
"1114 119 CURVE SMOOTH",
"1049 119 LINE",
"1049 -20 LINE"
);
}
);
width = 1888;
}
);
note = uni1710;
unicode = 1710;
},
{
glyphname = uni1711;
lastChange = "2016-11-10 14:40:32 +0000";
layers = (
{
layerId = "223D97A1-9E65-406C-A321-524201E1907E";
paths = (
{
closed = 1;
nodes = (
"688 483 OFFCURVE",
"761 490 OFFCURVE",
"841 505 CURVE SMOOTH",
"920 520 OFFCURVE",
"1044 553 OFFCURVE",
"1213 606 CURVE SMOOTH",
"1326 641 OFFCURVE",
"1422 659 OFFCURVE",
"1499 659 CURVE SMOOTH",
"1679 659 OFFCURVE",
"1794 621 OFFCURVE",
"1958 500 CURVE",
"2044 610 LINE",
"1857 747 OFFCURVE",
"1710 799 OFFCURVE",
"1526 799 CURVE SMOOTH",
"1408 799 OFFCURVE",
"1261 770 OFFCURVE",
"1085 713 CURVE SMOOTH",
"905 653 OFFCURVE",
"752 623 OFFCURVE",
"625 623 CURVE SMOOTH",
"460 623 OFFCURVE",
"349 667 OFFCURVE",
"184 786 CURVE",
"106 672 LINE",
"286 537 OFFCURVE",
"434 483 OFFCURVE",
"621 483 CURVE SMOOTH"
);
}
);
width = 2148;
}
);
note = uni1711;
unicode = 1711;
},
{
glyphname = uni1712;
lastChange = "2016-11-10 14:45:46 +0000";
layers = (
{
layerId = "223D97A1-9E65-406C-A321-524201E1907E";
paths = (
{
closed = 1;
nodes = (
"-284 1440 OFFCURVE",
"-240 1483 OFFCURVE",
"-240 1554 CURVE SMOOTH",
"-240 1625 OFFCURVE",
"-280 1669 OFFCURVE",
"-344 1669 CURVE SMOOTH",
"-404 1669 OFFCURVE",
"-451 1634 OFFCURVE",
"-451 1554 CURVE SMOOTH",
"-451 1477 OFFCURVE",
"-404 1440 OFFCURVE",
"-344 1440 CURVE SMOOTH"
);
}
);
width = 0;
}
);
note = uni1712;
unicode = 1712;
},
{
glyphname = uni1713;
lastChange = "2016-11-10 14:45:46 +0000";
layers = (
{
layerId = "223D97A1-9E65-406C-A321-524201E1907E";
paths = (
{
closed = 1;
nodes = (
"-145 -283 OFFCURVE",
"-96 -247 OFFCURVE",
"-96 -168 CURVE SMOOTH",
"-96 -88 OFFCURVE",
"-145 -53 OFFCURVE",
"-201 -53 CURVE SMOOTH",
"-261 -53 OFFCURVE",
"-307 -88 OFFCURVE",
"-307 -168 CURVE SMOOTH",
"-307 -247 OFFCURVE",
"-261 -283 OFFCURVE",
"-201 -283 CURVE SMOOTH"
);
}
);
width = 0;
}
);
note = uni1713;
unicode = 1713;
},
{
glyphname = uni1714;
lastChange = "2016-11-10 14:45:46 +0000";
layers = (
{
layerId = "223D97A1-9E65-406C-A321-524201E1907E";
paths = (
{
closed = 1;
nodes = (
"-487 -317 LINE",
"-487 -217 LINE",
"-387 -217 LINE",
"-387 -115 LINE",
"-487 -115 LINE",
"-487 -12 LINE",
"-590 -12 LINE",
"-590 -115 LINE",
"-692 -115 LINE",
"-692 -217 LINE",
"-590 -217 LINE",
"-590 -317 LINE"
);
}
);
width = 0;
}
);
note = uni1714;
unicode = 1714;
},
{
glyphname = uni1735;
lastChange = "2016-11-10 14:45:46 +0000";
layers = (
{
layerId = "223D97A1-9E65-406C-A321-524201E1907E";
paths = (
{
closed = 1;
nodes = (
"178 -285 LINE",
"598 1536 LINE",
"455 1536 LINE",
"37 -285 LINE"
);
}
);
width = 674;
}
);
note = uni1735;
unicode = 1735;
},
